<?xml version="1.0" standalone="no"?>
<!DOCTYPE svg PUBLIC "-//W3C//DTD SVG 20010904//EN"
 "http://www.w3.org/TR/2001/REC-SVG-20010904/DTD/svg10.dtd">
<svg version="1.0" xmlns="http://www.w3.org/2000/svg"
 width="700.000000pt" height="700.000000pt" viewBox="0 0 700.000000 700.000000"
 preserveAspectRatio="xMidYMid meet">
<g transform="translate(0.000000,700.000000) scale(0.100000,-0.100000)"
fill="#000000" stroke="none">
<path d="M2875 5754 c-1154 -26 -1760 -75 -1966 -158 -214 -86 -385 -263 -460
-476 -161 -456 -206 -1974 -83 -2845 49 -348 94 -479 222 -639 74 -92 216
-194 331 -237 268 -100 1162 -153 2581 -153 1442 0 2335 54 2591 158 214 86
385 263 460 476 161 456 206 1974 83 2845 -49 348 -94 479 -222 639 -74 92
-216 194 -331 237 -176 66 -642 111 -1421 139 -293 10 -1517 20 -1785 14z
m931 -1139 c215 -35 373 -108 546 -253 115 -96 150 -154 150 -252 0 -143 -112
-252 -258 -252 -75 0 -126 22 -195 87 -70 65 -146 111 -234 141 -67 23 -98 27
-190 27 -186 1 -301 -46 -430 -177 -130 -131 -185 -260 -185 -436 0 -176 55
-306 185 -436 60 -61 99 -90 155 -118 234 -114 487 -78 695 99 94 80 126 95
197 95 79 0 125 -17 176 -63 87 -81 109 -196 57 -302 -43 -89 -228 -237 -380
-305 -308 -138 -667 -132 -970 16 -273 133 -505 410 -585 695 -61 220 -56 482
14 688 112 326 407 613 733 711 163 49 353 62 519 35z"/>
</g>
</svg>
